<svg width="903.81496" height="419" xmlns="http://www.w3.org/2000/svg">

 <g>
  <title>background</title>
  <rect fill="none" id="canvas_background" height="602" width="802" y="-1" x="-1"/>
 </g>
 <g>
  <title>Layer 1</title>
  <path id="svg_1" fill="#f2f2f2" d="m854.20574,417.13462c-7.66862,-0.31841 -14.65546,-3.4134 -17.8161,-8.20809q-0.22188,-0.3366 -0.41782,-0.68273c-1.15407,-2.04287 -1.5142,-4.39169 -0.2526,-6.40454s4.41342,-3.54208 7.5786,-3.22463s5.63632,2.842 4.32649,4.84032c-0.29278,-4.03819 -0.53206,-8.28109 2.72379,-11.79607a11.8971,11.8971 0 0 1 6.665,-3.44471c6.56018,-1.15377 10.91609,2.5554 11.78838,6.30113c0.64385,2.76482 -0.24562,5.57713 -1.13059,8.31052c2.72833,-3.22649 9.21772,-4.662 14.18726,-3.13827s7.72721,5.7944 6.02891,9.3367c-2.00047,4.17253 -8.66851,6.32973 -14.8625,7.46953c-5.11486,0.94122 -12.78441,0.89139 -18.81882,0.64084z"/>
  <path id="svg_2" fill="#f2f2f2" d="m587.20574,417.13462c-7.66862,-0.31841 -14.65546,-3.4134 -17.8161,-8.20809q-0.22188,-0.3366 -0.41782,-0.68273c-1.15407,-2.04287 -1.5142,-4.39169 -0.2526,-6.40454s4.41342,-3.54208 7.5786,-3.22463s5.63632,2.842 4.32649,4.84032c-0.29278,-4.03819 -0.53206,-8.28109 2.72379,-11.79607a11.8971,11.8971 0 0 1 6.665,-3.44471c6.56018,-1.15377 10.91609,2.5554 11.78838,6.30113c0.64385,2.76482 -0.24562,5.57713 -1.13059,8.31052c2.72833,-3.22649 9.21772,-4.662 14.18726,-3.13827s7.72721,5.7944 6.02891,9.3367c-2.00047,4.17253 -8.66851,6.32973 -14.8625,7.46953c-5.11486,0.94122 -12.78441,0.89139 -18.81882,0.64084z"/>
  <polygon id="svg_4" fill="#ffb8b8" points="679.306 406.177 667.047 406.177 661.214 358.889 679.308 358.89 679.306 406.177"/>
  <path id="svg_5" fill="#2f2e41" d="m682.43278,418.06159l-39.53052,-0.00147l0,-0.5a15.38605,15.38605 0 0 1 15.38648,-15.38623l0.001,0l24.1438,0.001l-0.00076,15.8867z"/>
  <polygon id="svg_6" fill="#ffb8b8" points="816.262 394.707 804.705 398.799 783.42 356.172 800.476 350.132 816.262 394.707"/>
  <path id="svg_7" fill="#2f2e41" d="m823.17649,404.8652l-37.26281,13.19639l-0.16693,-0.47131a15.38606,15.38606 0 0 1 9.36673,-19.64037l0.00092,-0.00033l22.7588,-8.05979l5.30329,14.97541z"/>
  <path id="svg_8" fill="#2f2e41" d="m678.9649,390.30006a4.61332,4.61332 0 0 1 -0.82031,-0.07421l-14.99194,-2.72559a4.52108,4.52108 0 0 1 -3.69751,-4.33691c-2.1792,-100.91407 8.53467,-168.72852 31.8435,-217.33594a4.47342,4.47342 0 0 1 4.69092,-2.48145l53.91162,7.78321a4.50521,4.50521 0 0 1 3.82788,3.94726l4.75391,41.90332a3.54563,3.54563 0 0 0 0.14185,0.666l51.68921,154.86914a4.5194,4.5194 0 0 1 -2.866,5.63086l-13.96848,4.65625a4.52335,4.52335 0 0 1 -5.44824,-2.25684l-69.91821,-131.83689a1.50017,1.50017 0 0 0 -2.80689,0.34961l-31.96118,137.70512a4.48168,4.48168 0 0 1 -4.38013,3.53706z"/>
  <path id="svg_9" fill="#ffb8b8" d="m636.35718,84.0973a10.52739,10.52739 0 0 1 0.2393,1.64013l42.95745,24.782l10.44141,-6.01094l11.13115,14.57227l-17.45033,12.43754a8,8 0 0 1 -9.59819,-0.23384l-44.29648,-34.94583a10.4971,10.4971 0 1 1 6.57573,-12.24133l-0.00004,0z"/>
  <path id="svg_10" fill="#f9a826" d="m680.14416,108.04228a4.49518,4.49518 0 0 1 2.21126,-3.025l19.713,-11.02278a12.49741,12.49741 0 0 1 15.32664,19.74413l-15.71732,16.32122a4.5,4.5 0 0 1 -6.80392,-0.37268l-13.88374,-17.994a4.495,4.495 0 0 1 -0.84592,-3.65089z"/>
  <circle id="svg_11" fill="#ffb8b8" r="24.56103" cy="57.06582" cx="726.04977"/>
  <path id="svg_12" fill="#f9a826" d="m749.96613,176.36842a4.49986,4.49986 0 0 1 -0.728,-0.05957l-53.15335,-8.71385a4.49988,4.49988 0 0 1 -3.67407,-5.374l2.58593,-12.1914c-1.32373,-1.97461 -12.10254,-19.14551 1.02564,-35.27442a22.01039,22.01039 0 0 1 20.43335,-22.92187l27.46924,-2.08692a22.12706,22.12706 0 0 1 23.02172,27.88477l-12.593,55.2373a4.51031,4.51031 0 0 1 -4.38746,3.49996z"/>
  <path id="svg_13" fill="#ffb8b8" d="m799.60219,222.55847a10.74272,10.74272 0 0 0 -4.27021,-15.90952l-30.26349,-93.04686l-17.53839,8.322l33.11316,90.59865a10.80091,10.80091 0 0 0 18.95894,10.03573l-0.00001,0z"/>
  <path id="svg_14" fill="#f9a826" d="m771.76249,129.09337l-23.28842,7.035a4.81687,4.81687 0 0 1 -6.15823,-3.90862l-3.5355,-23.995a13.37737,13.37737 0 0 1 25.63415,-7.66175l10.31233,21.866a4.81689,4.81689 0 0 1 -2.96431,6.66438l-0.00002,-0.00001z"/>
  <path id="svg_15" d="m702.17536,58.01445a30.44348,30.44348 0 0 0 32.21073,-6.76432c-2.57623,6.80639 -1.856,35.674 -1.856,35.674s22.84668,-10.84668 25.94629,-12.74359c18.30713,-11.20417 -6.9419,-59.94287 -27.94629,-52.25641c-3.55762,1.30188 -6.529,2.83372 -7.96807,6.33788c-3.13633,-3.86875 -9.07321,-4.70786 -13.63995,-2.72072s-7.81312,6.29343 -9.55868,10.95785a27.4066,27.4066 0 0 0 1.993,23.11342l0.81897,-1.59811z"/>
  <path id="svg_16" fill="#3f3d56" d="m595.00001,0l-562,0a33.03244,33.03244 0 0 0 -33,33l0,154a33.03244,33.03244 0 0 0 33,33l562,0a33.03244,33.03244 0 0 0 33,-33l0,-154a33.03244,33.03244 0 0 0 -33,-33zm31,187a31.03964,31.03964 0 0 1 -31,31l-562,0a31.03964,31.03964 0 0 1 -31,-31l0,-154a31.03964,31.03964 0 0 1 31,-31l562,0a31.03964,31.03964 0 0 1 31,31l0,154z"/>
  <path id="svg_47" fill="#3f3d56" d="m902.81497,419l-381,0a1,1 0 1 1 0,-2l381,0a1,1 0 0 1 0,2z"/>
 </g>
</svg>